<svg xmlns="http://www.w3.org/2000/svg" xmlns:xlink="http://www.w3.org/1999/xlink" viewBox="0 0 68.63 75.45"><defs><linearGradient id="linear-gradient" x1="67.46" y1="93.68" x2="32.46" y2="33.68" gradientTransform="matrix(1, 0, 0, -1, 0, 78)" gradientUnits="userSpaceOnUse"><stop offset="0" stop-color="#4bef85"/><stop offset="0.58" stop-color="#28de86"/><stop offset="1" stop-color="#0fd186"/></linearGradient></defs><g><path d="M68.63,13.61A13.62,13.62,0,0,0,55,0h0L47.84,1.18h0L13.61,6.82A13.61,13.61,0,0,0,0,20.43H0V61.84A13.61,13.61,0,0,0,13.61,75.45H55A13.61,13.61,0,0,0,68.63,61.86V45.64c0-.7-.07-1.4-.07-2.12s0-1.45.07-2.16Z" fill="url(#linear-gradient)"/><path d="M52.94,16H18.45a5.27,5.27,0,0,0-5.28,5.28h0V55.72A5.3,5.3,0,0,0,18.45,61H52.94a5.3,5.3,0,0,0,5.28-5.28V21.23A5.28,5.28,0,0,0,52.94,16ZM18.45,19.47H52.94a1.76,1.76,0,0,1,1.76,1.76v5.28h-38V21.23A1.76,1.76,0,0,1,18.45,19.47Zm34.49,38H18.45a1.76,1.76,0,0,1-1.76-1.76V30h38V55.72a1.76,1.76,0,0,1-1.75,1.76ZM19.33,23a1.76,1.76,0,1,1,1.76,1.76A1.76,1.76,0,0,1,19.33,23Zm6.16,0a1.76,1.76,0,1,1,1.76,1.76A1.76,1.76,0,0,1,25.49,23Zm5.73,13.44a3.53,3.53,0,0,0-3.43-2.71H24.34v3.52h3.45l2,8.47a3.51,3.51,0,0,0,3.42,2.71h6.95a4.36,4.36,0,0,0,4.08-3.08l2.62-7.75H31.49ZM42,41.11l-1.1,3.13h0a.83.83,0,0,1-.72.62h-7l-.89-3.79ZM35.3,51.85a1.76,1.76,0,1,1-1.76-1.76h0a1.77,1.77,0,0,1,1.71,1.76Zm6.6,0a1.76,1.76,0,1,1-1.76-1.76h0a1.77,1.77,0,0,1,1.71,1.76Z" fill="#fff"/></g></svg>