<svg xmlns="http://www.w3.org/2000/svg" xmlns:xlink="http://www.w3.org/1999/xlink" viewBox="0 0 68.63 75.45"><defs><linearGradient id="linear-gradient" x1="153.38" y1="125.97" x2="-5.62" y2="6.97" gradientTransform="matrix(1, 0, 0, -1, 0, 78)" gradientUnits="userSpaceOnUse"><stop offset="0" stop-color="#00ffc6"/><stop offset="1" stop-color="#006eff"/></linearGradient></defs><g><path d="M68.63,13.62A13.62,13.62,0,0,0,55,0h0L13.61,6.82A13.61,13.61,0,0,0,0,20.43H0V61.84A13.61,13.61,0,0,0,13.61,75.45H55A13.61,13.61,0,0,0,68.63,61.86V45.64c0-.7-.07-1.4-.07-2.12s0-1.45.07-2.16Z" fill="url(#linear-gradient)"/><path d="M34.56,15.71,11.8,38.52a5.49,5.49,0,0,0,0,7.74L26.36,60.84a5.41,5.41,0,0,0,3.87,1.61h0a5.46,5.46,0,0,0,3.87-1.6L56.93,38V15.71ZM53.28,36.53,31.52,58.26a1.78,1.78,0,0,1-1.29.54h0a1.84,1.84,0,0,1-1.29-.54L14.38,43.68a1.83,1.83,0,0,1,0-2.58l21.7-21.74h17.2ZM43.79,27a1.83,1.83,0,1,1,1.84,1.82h0A1.84,1.84,0,0,1,43.79,27Zm-6,5.6L40,30.47l2.59,2.58-2.13,2.12a4.85,4.85,0,0,1,.47,1.94,4.68,4.68,0,0,1-1.38,3.54l-.32.32L36.6,38.39l.32-.32a1.27,1.27,0,0,0-.12-1.79,1.38,1.38,0,0,0-1-.42,1.17,1.17,0,0,0-.83.34c-.63.63-.66,1.5-.11,3.22h0a14.91,14.91,0,0,1,.78,3.36,4.81,4.81,0,0,1-1.37,3.86,5.6,5.6,0,0,1-6.4,1l-2.13,2.13-2.58-2.59,2.16-2.16a5.6,5.6,0,0,1,1.09-6.25l.51-.51,2.59,2.58L29,41.4a1.93,1.93,0,0,0,0,2.68,1.84,1.84,0,0,0,1.33.53,2,2,0,0,0,1.36-.55c.55-.56.32-1.55-.31-3.54h0c-.38-1.22-1.41-4.47,1-6.9a4.83,4.83,0,0,1,3.42-1.41,4.92,4.92,0,0,1,2,.42Z" fill="#fff"/></g></svg>