<svg xmlns="http://www.w3.org/2000/svg" xmlns:xlink="http://www.w3.org/1999/xlink" viewBox="0 0 68.63 75.45"><defs><linearGradient id="linear-gradient" x1="81.64" y1="96.38" x2="15.64" y2="13.38" gradientTransform="matrix(1, 0, 0, -1, 0, 78)" gradientUnits="userSpaceOnUse"><stop offset="0" stop-color="#ffcb52"/><stop offset="1" stop-color="#ff7b02"/></linearGradient></defs><g><path d="M68.63,13.62A13.62,13.62,0,0,0,55,0h0L13.61,6.82A13.61,13.61,0,0,0,0,20.43H0V61.84A13.61,13.61,0,0,0,13.61,75.45H55A13.61,13.61,0,0,0,68.63,61.86V45.64c0-.7-.07-1.4-.07-2.12s0-1.45.07-2.16Z" fill="url(#linear-gradient)"/><path d="M57.48,45.24A1.79,1.79,0,0,1,55.69,47H45.84v2.9a1.79,1.79,0,0,1-3.58,0V47H26.86v2.9a1.79,1.79,0,0,1-3.58,0V47H17.91v6.45A3.6,3.6,0,0,0,21.49,57H47.63a3.6,3.6,0,0,0,3.58-3.58,1.79,1.79,0,1,1,3.58,0,7.18,7.18,0,0,1-7.16,7.16H21.49a7.18,7.18,0,0,1-7.16-7.16V47h-.89a1.79,1.79,0,0,1-1.79-1.79h0V29.13A7.17,7.17,0,0,1,18.81,22h6.8V20.18A5.38,5.38,0,0,1,31,14.81h7.16a5.39,5.39,0,0,1,5.37,5.37V22h6.8a7.17,7.17,0,0,1,7.17,7.16ZM29.19,22H39.93V20.18a1.79,1.79,0,0,0-1.79-1.79H31a1.79,1.79,0,0,0-1.79,1.79h0ZM53.9,43.45V29.13a3.58,3.58,0,0,0-3.58-3.58H18.81a3.58,3.58,0,0,0-3.58,3.58V43.45Z" fill="#fff"/></g></svg>