<svg xmlns="http://www.w3.org/2000/svg" xmlns:xlink="http://www.w3.org/1999/xlink" viewBox="0 0 68.63 75.45"><defs><linearGradient id="linear-gradient" x1="78.88" y1="94.64" x2="-2.12" y2="-10.36" gradientTransform="matrix(1, 0, 0, -1, 0, 78)" gradientUnits="userSpaceOnUse"><stop offset="0" stop-color="#0fd186"/><stop offset="0.11" stop-color="#18ca8f"/><stop offset="0.38" stop-color="#2abda1"/><stop offset="0.66" stop-color="#35b5ac"/><stop offset="1" stop-color="#38b2af"/></linearGradient></defs><g><path d="M68.63,13.61A13.62,13.62,0,0,0,55,0h0L13.61,6.82A13.61,13.61,0,0,0,0,20.43H0V61.84A13.61,13.61,0,0,0,13.61,75.45H55A13.61,13.61,0,0,0,68.63,61.86V45.64c0-.7-.07-1.4-.07-2.12s0-1.45.07-2.16Z" fill="url(#linear-gradient)"/><path d="M11,40.93V36.62c.09,0,.1-.09.11-.17a23.82,23.82,0,0,1,1.79-6.79l.49-1.09a30.27,30.27,0,0,1,3.21-4.86,36.57,36.57,0,0,1,2.92-2.92,30.27,30.27,0,0,1,4.86-3.21l1.09-.49a26,26,0,0,1,5-1.52,13.85,13.85,0,0,0,2.12-.38h4s.07.09.11.1a23.51,23.51,0,0,1,6.56,1.55l.25.08,1.22.54a.92.92,0,0,0,.47.24l1,.55a.85.85,0,0,0,.44.25l.88.56a1.08,1.08,0,0,0,.49.32l.92.68.44.34.81.68.43.37.68.66a1.68,1.68,0,0,0,.46.46l.77.84a.48.48,0,0,0,.25.29l.77,1,.24.31.59.86a1.1,1.1,0,0,0,.32.48l.66,1.13c0,.08,0,.18.12.22L56,28.81a.48.48,0,0,0,.15.32l.46,1.14.17.46a2,2,0,0,1-.25,1.93l-.27.28a3.4,3.4,0,0,1-2,.41H46.63c-1.48,0-1.48,0-1.3,1.47v.69A2,2,0,0,1,43.8,37h-.57a3.08,3.08,0,0,1-1-.48L41.88,36a4.07,4.07,0,0,1-.23-1.1v-.57c0-1.31,0-1-1-1H28c-.41,0-.4.08-.42.36,0,.49-.07,1-.11,1.46l-.1,1.72a1.89,1.89,0,0,0,0,.67V39.8a6,6,0,0,0,.07,1.59V42a7.24,7.24,0,0,0,.12,1.47,1.44,1.44,0,0,0,.08.68,9.26,9.26,0,0,0,.17,1.39l.09.54a6.24,6.24,0,0,0,.23,1.36l.11.57a7.93,7.93,0,0,0,.33,1.36l.13.45a7.21,7.21,0,0,0,.41,1.37.4.4,0,0,0,.11.34,5.93,5.93,0,0,0,.38,1.24l.11.57a1.9,1.9,0,0,1-1.83,1.83h-.45a3.74,3.74,0,0,1-.92-.55l-.32-.47L25.86,53l-.15-.48-.38-1.23a.66.66,0,0,0-.13-.45l-.35-1.36a.71.71,0,0,0-.11-.45c-.24-1.41-.09-1.13-.9-1.12H16.76l.74,1.23a1.21,1.21,0,0,0,.31.49,3.46,3.46,0,0,0,.6.87,1,1,0,0,0,.33.44,3.21,3.21,0,0,0,.66.81.73.73,0,0,0,.32.35,5.06,5.06,0,0,0,.84.89.57.57,0,0,0,.28.25,4.49,4.49,0,0,0,1.06.93l.23.19A3.21,3.21,0,0,0,23,55a1.09,1.09,0,0,0,.46.33,3.88,3.88,0,0,0,.91.57l.45.31a2.69,2.69,0,0,1,.66,1v.29c-.09,1.28-.62,1.82-1.94,2l-.46-.08-1-.57-.48-.31-.87-.6a.55.55,0,0,0-.32-.24l-.95-.77a.57.57,0,0,0-.3-.25l-.83-.77-.47-.45a4.14,4.14,0,0,0-.78-.84l-.24-.28a4,4,0,0,0-.67-.81l-.35-.45a4.23,4.23,0,0,0-.66-.91.6.6,0,0,0-.24-.34,5,5,0,0,0-.64-1L14,50.38a4.87,4.87,0,0,0-.55-1,.49.49,0,0,0-.16-.32l-.52-1.15a1.28,1.28,0,0,0-.24-.59A35.88,35.88,0,0,1,11.32,43,8.66,8.66,0,0,0,11,40.93Zm34.11-19.2a5,5,0,0,0-1.22-.68,11.2,11.2,0,0,0-2.79-1.16,25.42,25.42,0,0,1,1.4,2.56l.55,1.35a.39.39,0,0,0,.14.37l.36,1.11.14.47.4,1.35a.66.66,0,0,0,.12.45l.26,1.24.12.59c0,.28.14.33.39.32h7.4a13.7,13.7,0,0,0-1.33-2.2c0-.08,0-.15-.12-.17a3.54,3.54,0,0,0-.72-1A.72.72,0,0,0,50,26a3.13,3.13,0,0,0-.79-.91.92.92,0,0,0-.35-.38,3,3,0,0,0-.8-.75.79.79,0,0,0-.36-.34,3.19,3.19,0,0,0-.86-.69,1.07,1.07,0,0,0-.39-.31,3.43,3.43,0,0,0-.87-.59.72.72,0,0,0-.44-.3ZM14.89,35.82a1.81,1.81,0,0,0-.1.69,9.13,9.13,0,0,0-.11,1.81v.57a5.58,5.58,0,0,0,.09,1.58V41A8,8,0,0,0,15,42.51a.74.74,0,0,0,.1.46c.05.25.1.5.13.76,0,.41.25.58.66.46h7.77c.29,0,.34-.09.31-.35-.08-.79-.13-1.58-.19-2.37a1.11,1.11,0,0,0-.06-.57V36.31a12,12,0,0,0,.11-1.7,1.43,1.43,0,0,0,.07-.68c.13-.4.07-.64-.44-.57a8.34,8.34,0,0,1-1,0h-6.8c-.22,0-.33,0-.38.28A13.27,13.27,0,0,0,14.89,35.82Zm9.86-7.25.57-2.27a2,2,0,0,0,.23-.79l1-2.66L27,21.76l1-1.87a12.09,12.09,0,0,0-2,.84,3.88,3.88,0,0,0-1.13.57,11.12,11.12,0,0,0-2,1.24A18.53,18.53,0,0,0,17.14,29a1.34,1.34,0,0,0-.33.66h6.8c1,.06,1,.06,1.13-.89A1.34,1.34,0,0,0,24.75,28.57Zm15.63-1.48-.12-.45a5.59,5.59,0,0,0-.43-1.37.34.34,0,0,0-.11-.33,4.27,4.27,0,0,0-.46-1.25.87.87,0,0,0-.2-.46,4.35,4.35,0,0,0-.55-1.15.89.89,0,0,0-.26-.45,3.36,3.36,0,0,0-.59-.89.72.72,0,0,0-.29-.35,2.45,2.45,0,0,0-.81-.79.89.89,0,0,0-.48-.33,2.18,2.18,0,0,0-1.35-.43,2.73,2.73,0,0,0-2.07.73,8.79,8.79,0,0,0-2.59,3.89,12,12,0,0,0-.94,2.62,1.78,1.78,0,0,0-.21.78,12.71,12.71,0,0,0-.54,2.27c-.15.35-.27.67.34.55H40.66c.25,0,.34-.05.28-.31C40.75,28.62,40.57,27.86,40.38,27.09Z" fill="#fff"/><path d="M56.5,42.42H35.59c-.28,0-.38.06-.29.34.34,1.13.67,2.27,1,3.4a.69.69,0,0,0,.13.46l.34,1.24.18.58a4.87,4.87,0,0,0,.35,1.24.67.67,0,0,0,.14.45c.09.37.19.74.27,1.12s.19.28.41.22H54.67c.2,0,.34,0,.4-.26.28-1.13.59-2.25.88-3.37a1.79,1.79,0,0,0,.21-.79,12.93,12.93,0,0,0,.58-2.11,4,4,0,0,0,.3-1.07c.06-.19.13-.39.18-.58C57.49,42.36,57.48,42.36,56.5,42.42Z" fill="none"/><path d="M39.57,41.54a4.13,4.13,0,0,0-4-3.19h-4.1v4.14h4.06l2.36,10a4.14,4.14,0,0,0,4,3.2h8.19A5.12,5.12,0,0,0,54.92,52L58,42.91H39.89Zm12.66,5.52L51,50.74h0a1,1,0,0,1-.85.73H41.93L40.87,47Zm-7.9,12.65a2.08,2.08,0,1,1-2.09-2.07h0A2.09,2.09,0,0,1,44.33,59.71Zm7.78,0A2.08,2.08,0,1,1,50,57.64a2.08,2.08,0,0,1,2.11,2.07Z" fill="#fff"/></g></svg>