<svg xmlns="http://www.w3.org/2000/svg" xmlns:xlink="http://www.w3.org/1999/xlink" viewBox="0 0 255.2 281"><defs><style>.cls-1{fill:url(#linear-gradient);}.cls-2{fill:#fff;}</style><linearGradient id="linear-gradient" x1="13.58" y1="-5867.75" x2="254.85" y2="-5626.48" gradientTransform="matrix(1, 0, 0, -1, 0, -5600.01)" gradientUnits="userSpaceOnUse"><stop offset="0" stop-color="#006bbb"/><stop offset="1" stop-color="#30a0e0"/></linearGradient></defs><title>Asset 1</title><g id="Layer_2" data-name="Layer 2"><g id="Layer_1-2" data-name="Layer 1"><path class="cls-1" d="M209.4,281H45.8A45.79,45.79,0,0,1,0,235.2V72.3A45.69,45.69,0,0,1,38.5,27.1L202.1.6a45.77,45.77,0,0,1,53.1,45.2V235.1A45.81,45.81,0,0,1,209.4,281Z"/><path class="cls-2" d="M221.8,84.9a16.3,16.3,0,0,0-11.1-5.7L76,67.5A16.29,16.29,0,0,0,58.4,82.3l-2.7,25.2h-10a16.3,16.3,0,0,0-16.3,16.3v87.5a16.3,16.3,0,0,0,16.3,16.3H181a16.3,16.3,0,0,0,16.3-16.3V198.6l3.5.3A16.47,16.47,0,0,0,218.4,184l7.3-87.2A16.51,16.51,0,0,0,221.8,84.9Zm-35,126.4a5.8,5.8,0,0,1-5.8,5.8H45.8a5.8,5.8,0,0,1-5.8-5.8V164.7H186.8Zm0-57.1H40V140.8H186.8Zm0-23.8H40v-6.6a5.8,5.8,0,0,1,5.8-5.8H181a5.8,5.8,0,0,1,5.8,5.8Zm28.4-34.5h0l-7.3,87.2a5.83,5.83,0,0,1-6.2,5.3l-4.4-.4V123.7A16.3,16.3,0,0,0,181,107.4H66.3l2.6-24.1v-.1a5.83,5.83,0,0,1,6.2-5.3L209.9,89.6a5.84,5.84,0,0,1,5.3,6.3Z"/><path class="cls-2" d="M134.6,208.3h37.3a5.16,5.16,0,0,0,5.2-5.2V178.8a5.16,5.16,0,0,0-5.2-5.2H134.6a5.16,5.16,0,0,0-5.2,5.2v24.3A5.16,5.16,0,0,0,134.6,208.3Zm5.3-24.3h26.9v13.9H139.9Z"/></g></g></svg>