<?xml version="1.0" encoding="utf-8"?>
<!-- Generator: Adobe Illustrator 25.0.0, SVG Export Plug-In . SVG Version: 6.00 Build 0)  -->
<svg version="1.1" id="Layer_1" xmlns="http://www.w3.org/2000/svg" xmlns:xlink="http://www.w3.org/1999/xlink" x="0px" y="0px"
	 viewBox="0 0 688.24 652.94" style="enable-background:new 0 0 688.24 652.94;" xml:space="preserve">
<style type="text/css">
	.st0{fill:url(#SVGID_1_);}
	.st1{fill:#FFFFFF;}
</style>
<linearGradient id="SVGID_1_" gradientUnits="userSpaceOnUse" x1="161.3661" y1="523.3684" x2="553.9286" y2="130.8059">
	<stop  offset="0.2346" style="stop-color:#0859D3"/>
	<stop  offset="1" style="stop-color:#0095FE"/>
</linearGradient>
<path class="st0" d="M557.47,168.91c0-46.08-37.35-83.43-83.42-83.43l-253.7,41.79c-46.08,0-83.41,37.35-83.41,83.43v253.69
	c0,46.07,37.33,83.42,83.41,83.42h253.7c46.07,0,83.42-37.35,83.42-83.42v-99.23c-0.25-4.28-0.41-8.61-0.41-13.02
	c0-4.44,0.15-8.86,0.42-13.23V168.91z"/>
<g>
	<path class="st1" d="M461.93,377.06c5.52-6.16,8.89-14.29,8.89-23.2c0-19.19-15.61-34.8-34.8-34.8s-34.8,15.61-34.8,34.8
		c0,8.91,3.37,17.04,8.89,23.2c-7.87,3.71-14.82,9.06-20.41,15.61l-31.99-25.59v-65.43h52.21v-26.1c0-24.32-14.33-45.35-34.99-55.11
		c5.52-6.16,8.89-14.29,8.89-23.2c0-19.19-15.61-34.8-34.8-34.8s-34.8,15.61-34.8,34.8c0,8.91,3.37,17.04,8.89,23.2
		c-20.66,9.75-34.99,30.79-34.99,55.11v26.1h52.21v65.43l-31.99,25.59c-5.59-6.55-12.54-11.9-20.41-15.61
		c5.52-6.16,8.89-14.29,8.89-23.2c0-19.19-15.61-34.8-34.8-34.8s-34.8,15.61-34.8,34.8c0,8.91,3.37,17.04,8.89,23.2
		c-20.66,9.75-34.99,30.79-34.99,55.11v26.1H322.9v-26.1c0-8.79-1.87-17.14-5.24-24.69L349,382.41l31.34,25.07
		c-3.36,7.55-5.24,15.91-5.24,24.69v26.1h121.81v-26.1C496.92,407.85,482.59,386.82,461.93,377.06L461.93,377.06z M331.6,197.25
		c0-9.6,7.81-17.4,17.4-17.4c9.6,0,17.4,7.81,17.4,17.4c0,9.6-7.81,17.4-17.4,17.4C339.4,214.65,331.6,206.84,331.6,197.25
		L331.6,197.25z M305.49,275.56c0-23.99,19.52-43.5,43.5-43.5s43.5,19.52,43.5,43.5v8.7h-87.01L305.49,275.56z M244.59,353.86
		c0-9.6,7.81-17.4,17.4-17.4c9.6,0,17.4,7.81,17.4,17.4c0,9.6-7.81,17.4-17.4,17.4C252.39,371.27,244.59,363.46,244.59,353.86z
		 M305.49,440.87h-87.01v-8.7c0-23.99,19.52-43.5,43.5-43.5s43.5,19.52,43.5,43.5V440.87z M418.61,353.86c0-9.6,7.81-17.4,17.4-17.4
		c9.6,0,17.4,7.81,17.4,17.4c0,9.6-7.81,17.4-17.4,17.4C426.41,371.27,418.61,363.46,418.61,353.86z M479.51,440.87H392.5v-8.7
		c0-23.99,19.52-43.5,43.5-43.5c23.99,0,43.5,19.52,43.5,43.5V440.87z"/>
</g>
</svg>
