<svg xmlns="http://www.w3.org/2000/svg" xmlns:xlink="http://www.w3.org/1999/xlink" viewBox="0 0 255.2 281"><defs><style>.cls-1{fill:url(#linear-gradient);}.cls-2{fill:#fff;}</style><linearGradient id="linear-gradient" x1="13.58" y1="713.53" x2="254.85" y2="472.25" gradientTransform="translate(0 -445.78)" gradientUnits="userSpaceOnUse"><stop offset="0" stop-color="#00d08b"/><stop offset="1" stop-color="#00e290"/></linearGradient></defs><title>Asset 1</title><g id="Layer_2" data-name="Layer 2"><g id="Layer_1-2" data-name="Layer 1"><path class="cls-1" d="M209.4,281H45.8A45.79,45.79,0,0,1,0,235.2V72.3A45.69,45.69,0,0,1,38.5,27.1L202.1.6a45.77,45.77,0,0,1,53.1,45.2V235.1A45.81,45.81,0,0,1,209.4,281Z"/><path class="cls-2" d="M218.5,111.7a6.06,6.06,0,0,0-4.6-2.1h-18v-30a6,6,0,0,0-6-6h-9.5l1.8-1.8a6,6,0,0,0-8.5-8.5L166,71l-7.8-7.8a6,6,0,0,0-8.5,8.5l1.8,1.8H142a6,6,0,0,0-6,6v6H82.1a6,6,0,0,0-6,6v18H63.8L51.9,66a6,6,0,0,0-5.8-4.4H21.3a6,6,0,0,0,0,12H41.5L74.6,195.1a17.94,17.94,0,0,0,2.7,33.7,18.47,18.47,0,0,0-1.3,6.6,18,18,0,0,0,36,0,19.86,19.86,0,0,0-1-6h50a17.18,17.18,0,0,0-1,6,18,18,0,1,0,18-18H82.1a6,6,0,0,1-.6-12l121-12a6.15,6.15,0,0,0,5.4-5l12-71.9a6,6,0,0,0-1.4-4.8ZM148,85.6h36v24H148Zm-59.9,12h48v12h-48Zm118.8,23.9L196.8,182,86.5,193,67,121.6H206.9ZM100,235.4a6,6,0,1,1-6-6A6,6,0,0,1,100,235.4Zm78,6a6,6,0,1,1,6-6A6,6,0,0,1,178,241.4Z"/><path class="cls-2" d="M142,169.5a6,6,0,0,0,6-6v-24a6,6,0,0,0-12,0v24A6,6,0,0,0,142,169.5Z"/><path class="cls-2" d="M178,169.5a6,6,0,0,0,6-6v-24a6,6,0,0,0-12,0v24A6,6,0,0,0,178,169.5Z"/><path class="cls-2" d="M106,169.5a6,6,0,0,0,6-6v-24a6,6,0,0,0-12,0v24A6,6,0,0,0,106,169.5Z"/></g></g></svg>