<svg xmlns="http://www.w3.org/2000/svg" xmlns:xlink="http://www.w3.org/1999/xlink" viewBox="0 0 68.63 75.45"><defs><linearGradient id="linear-gradient" x1="50.04" y1="76.83" x2="26.04" y2="15.83" gradientTransform="matrix(1, 0, 0, -1, 0, 78)" gradientUnits="userSpaceOnUse"><stop offset="0" stop-color="#7cd1ff"/><stop offset="0.99" stop-color="#0cc2ed"/></linearGradient></defs><g><path d="M68.63,13.61A13.62,13.62,0,0,0,55,0h0L13.61,6.82A13.61,13.61,0,0,0,0,20.43H0V61.84A13.61,13.61,0,0,0,13.61,75.45H55A13.61,13.61,0,0,0,68.63,61.86V45.64c0-.7-.07-1.4-.07-2.12s0-1.45.07-2.16Z" fill="url(#linear-gradient)"/><path d="M54.81,21.48C52.89,17.91,50.43,16,47.88,16s-5,2-6.93,5.53a19.64,19.64,0,0,0-2.41,8.25v.34A8.88,8.88,0,0,0,46,38.57V63.78h3.74V38.57a8.87,8.87,0,0,0,7.47-8.5v-.34A19.63,19.63,0,0,0,54.81,21.48Zm-1.33,8.59c0,2.72-2.51,4.94-5.6,4.94s-5.6-2.22-5.6-4.94v-.34a15.92,15.92,0,0,1,2-6.48c1.19-2.2,2.58-3.56,3.64-3.56s2.45,1.36,3.64,3.56a15.92,15.92,0,0,1,2,6.48Z" fill="#fff"/><path d="M32.89,52.56a12.7,12.7,0,1,1,.84-25.39,11.21,11.21,0,0,1,1.3.11,22.7,22.7,0,0,1,1-3.64,18.61,18.61,0,0,0-2.11-.21,16.44,16.44,0,1,0,8.43,30.21V48.85A12.65,12.65,0,0,1,32.89,52.56Z" fill="#fff"/><path d="M32.64,60A20.18,20.18,0,0,1,34,19.7a20.42,20.42,0,0,1,3.48.42l.21-.42a20.08,20.08,0,0,1,1.91-2.92A24.32,24.32,0,0,0,34.1,16a23.92,23.92,0,1,0,8.18,46.09V57.94A20,20,0,0,1,32.64,60Z" fill="#fff"/><path d="M57.2,38.77a13.2,13.2,0,0,1-3.71,2.51V52.72a23.84,23.84,0,0,0,3.72-12.07C57.23,40,57.22,39.4,57.2,38.77Z" fill="#fff"/></g></svg>