<svg xmlns="http://www.w3.org/2000/svg" xmlns:xlink="http://www.w3.org/1999/xlink" viewBox="0 0 68.63 75.45"><defs><linearGradient id="linear-gradient" x1="65.73" y1="79.75" x2="13.73" y2="8.75" gradientTransform="matrix(1, 0, 0, -1, 0, 78)" gradientUnits="userSpaceOnUse"><stop offset="0.01" stop-color="#ab5af4"/><stop offset="0.36" stop-color="#8a66f0"/><stop offset="0.77" stop-color="#6a72ec"/><stop offset="1" stop-color="#5e76eb"/></linearGradient></defs><g><path d="M68.63,13.61A13.62,13.62,0,0,0,55,0h0L13.61,6.82A13.61,13.61,0,0,0,0,20.43H0V61.84A13.61,13.61,0,0,0,13.61,75.45H55A13.61,13.61,0,0,0,68.63,61.86V45.64c0-.7-.07-1.4-.07-2.12s0-1.45.07-2.16Z" fill="url(#linear-gradient)"/><path d="M54.15,44.4V34.8a5.55,5.55,0,1,0-5.82-9.18l-7.81-3.78v-.4a5.56,5.56,0,0,0-11.11,0v.44l-7.84,3.71A5.56,5.56,0,1,0,15.8,34.8v9.6a5.56,5.56,0,1,0,3.87,10.43,5.68,5.68,0,0,0,2-1.26l7.8,3.73a3.53,3.53,0,0,0,0,.46,5.56,5.56,0,1,0,11.11.47,3.69,3.69,0,0,0,0-.47v-.5l7.83-3.66a5.56,5.56,0,0,0,7.75-8,5.79,5.79,0,0,0-1.94-1.22ZM52.21,27.74a1.86,1.86,0,1,1-1.86,1.86,1.86,1.86,0,0,1,1.86-1.86ZM35,19.59a1.86,1.86,0,1,1-1.85,1.87v0A1.85,1.85,0,0,1,35,19.59ZM17.74,27.74a1.86,1.86,0,1,1-1.85,1.87h0A1.87,1.87,0,0,1,17.74,27.74Zm0,23.72A1.86,1.86,0,1,1,19.6,49.6h0a1.85,1.85,0,0,1-1.85,1.85ZM35,59.61a1.85,1.85,0,1,1,1.86-1.85A1.85,1.85,0,0,1,35,59.61Zm0-7.41a5.51,5.51,0,0,0-4,1.72l-7.7-3.68q0-.32,0-.63a5.55,5.55,0,0,0-3.8-5.27V34.87a5.56,5.56,0,0,0,3.8-5.27v-.7L31,25.26a5.56,5.56,0,0,0,7.85.24l.24-.24L46.73,29a3.64,3.64,0,0,0,0,.66,5.56,5.56,0,0,0,3.8,5.27v9.47a5.55,5.55,0,0,0-3.8,5.27,3.75,3.75,0,0,0,0,.67L39,53.9A5.49,5.49,0,0,0,35,52.2Zm17.24-.74a1.86,1.86,0,1,1,1.85-1.87v0a1.85,1.85,0,0,1-1.85,1.85h0Z" fill="#fff"/><path d="M31.12,35.25a3.09,3.09,0,0,0-3-2.38h-3V36h3l1.76,7.43a3.08,3.08,0,0,0,3,2.39H39a3.83,3.83,0,0,0,3.59-2.7l2.3-6.82H31.36Zm9.44,4.12-.93,2.74h0a.74.74,0,0,1-.64.54h-6.1l-.79-3.32ZM34.67,48.8a1.55,1.55,0,1,1-1.56-1.54h0a1.54,1.54,0,0,1,1.55,1.53Zm5.8,0a1.55,1.55,0,1,1-1.56-1.54h0a1.54,1.54,0,0,1,1.55,1.53Z" fill="#fff"/></g></svg>